<svg id="Capa_1" data-name="Capa 1" xmlns="http://www.w3.org/2000/svg" xmlns:xlink="http://www.w3.org/1999/xlink" viewBox="0 0 512 512"><defs><style>.cls-1{fill:url(#Degradado_sin_nombre_2);}.cls-2{fill:url(#Degradado_sin_nombre_2-2);}.cls-3{fill:url(#Degradado_sin_nombre_2-3);}.cls-4{fill:url(#Degradado_sin_nombre_2-4);}</style><linearGradient id="Degradado_sin_nombre_2" x1="256" y1="39.61" x2="256" y2="367.11" gradientUnits="userSpaceOnUse"><stop offset="0" stop-color="#00a8ce"/><stop offset="0.98" stop-color="#2a3260"/><stop offset="1" stop-color="#2a3260"/></linearGradient><linearGradient id="Degradado_sin_nombre_2-2" x1="262.58" y1="231.49" x2="262.58" y2="297.2" xlink:href="#Degradado_sin_nombre_2"/><linearGradient id="Degradado_sin_nombre_2-3" x1="262.58" y1="319.09" x2="262.58" y2="384.79" xlink:href="#Degradado_sin_nombre_2"/><linearGradient id="Degradado_sin_nombre_2-4" x1="262.58" y1="406.69" x2="262.58" y2="472.39" xlink:href="#Degradado_sin_nombre_2"/></defs><path class="cls-1" d="M435.43,206.63q-2.13,0-4.23.12c0-1.13,0-2.26,0-3.39a163.78,163.78,0,0,0-316-60.47c-1,0-2.09,0-3.14,0A112.13,112.13,0,0,0,107.18,367v.11l1.9,0c1,0,2,0,3,0l1.27,0V331.75a19.13,19.13,0,0,1,19.12-19.12H392.64a19.13,19.13,0,0,1,19.12,19.12v28.54l23.67-.53a76.57,76.57,0,1,0,0-153.13ZM310.72,108.76a54.31,54.31,0,0,1,39.33,16.76l-19.8,17.31a24.74,24.74,0,0,0-19.53-9.69A24.86,24.86,0,1,0,324,179V169.7H305.46V149.9h44.59v40.44a53.88,53.88,0,0,1-39.33,16.89c-28.53,0-52.49-22.57-52.49-49.3S282.19,108.76,310.72,108.76ZM208.79,164.58a26.07,26.07,0,0,0-16.62,5.54l-17.59-6.65,1.39-53h67.72v23.95H200.48L200.06,148a29.34,29.34,0,0,1,17.45-5.27c16.62,0,31.44,10.81,31.44,30.47,0,21.05-15.65,34.21-40.58,34.21-16.75,0-29.36-5.4-38.91-14.27l15.23-18.83c7.06,6,15.51,10,23.68,10,9.14,0,13.85-4.71,13.85-10.11C222.22,168.32,217.24,164.58,208.79,164.58Zm203,120a19.14,19.14,0,0,1-19.12,19.12H132.52a19.14,19.14,0,0,1-19.12-19.12V244.15A19.13,19.13,0,0,1,132.52,225H392.64a19.13,19.13,0,0,1,19.12,19.12Z"/><path class="cls-2" d="M392.64,231.49H132.52a12.66,12.66,0,0,0-12.66,12.66v40.39a12.66,12.66,0,0,0,12.66,12.66H392.64a12.66,12.66,0,0,0,12.66-12.66V244.15A12.66,12.66,0,0,0,392.64,231.49ZM169.93,274.65a9.88,9.88,0,1,1,9.88-9.88A9.88,9.88,0,0,1,169.93,274.65Zm35.07,0a9.88,9.88,0,1,1,9.88-9.88A9.88,9.88,0,0,1,205,274.65Zm35.07,0a9.88,9.88,0,1,1,9.88-9.88A9.89,9.89,0,0,1,240.07,274.65ZM372.21,273H311.45V256.49h60.76Z"/><path class="cls-3" d="M392.64,319.09H132.52a12.66,12.66,0,0,0-12.66,12.66v40.39a12.65,12.65,0,0,0,12.66,12.65H392.64a12.65,12.65,0,0,0,12.66-12.65V331.75A12.66,12.66,0,0,0,392.64,319.09ZM169.93,361.82a9.88,9.88,0,1,1,9.88-9.88A9.88,9.88,0,0,1,169.93,361.82Zm35.07,0a9.88,9.88,0,1,1,9.88-9.88A9.88,9.88,0,0,1,205,361.82Zm35.07,0a9.88,9.88,0,1,1,9.88-9.88A9.88,9.88,0,0,1,240.07,361.82Zm132.14-1.6H311.45V343.67h60.76Z"/><path class="cls-4" d="M392.64,406.69H132.52a12.66,12.66,0,0,0-12.66,12.66v40.38a12.66,12.66,0,0,0,12.66,12.66H392.64a12.66,12.66,0,0,0,12.66-12.66V419.35A12.66,12.66,0,0,0,392.64,406.69ZM169.93,449a9.88,9.88,0,1,1,9.88-9.88A9.88,9.88,0,0,1,169.93,449ZM205,449a9.88,9.88,0,1,1,9.88-9.88A9.88,9.88,0,0,1,205,449Zm35.07,0a9.88,9.88,0,1,1,9.88-9.88A9.88,9.88,0,0,1,240.07,449Zm132.14-1.6H311.45V430.84h60.76Z"/></svg>