<svg id="Capa_1" data-name="Capa 1" xmlns="http://www.w3.org/2000/svg" xmlns:xlink="http://www.w3.org/1999/xlink" viewBox="0 0 512 512"><defs><style>.cls-1{fill:url(#Degradado_sin_nombre_2);}.cls-2{fill:url(#Degradado_sin_nombre_2-2);}</style><linearGradient id="Degradado_sin_nombre_2" x1="256" x2="256" y2="512" gradientUnits="userSpaceOnUse"><stop offset="0" stop-color="#00a8ce"/><stop offset="0.98" stop-color="#2a3260"/><stop offset="1" stop-color="#2a3260"/></linearGradient><linearGradient id="Degradado_sin_nombre_2-2" x1="331.21" y1="242.08" x2="331.21" y2="413.14" xlink:href="#Degradado_sin_nombre_2"/></defs><path class="cls-1" d="M490.92,477.84c-.49-9.72-3.11-12.18-12.79-12.23-3.58,0-7.15.57-10.75,0-4.68-.73-7.32-3.09-8.38-7.68a31.35,31.35,0,0,1-.58-7.3q.09-61.32.19-122.65c0-27.74-.11-55.49-.14-83.24,0-8.72,2.68-13,10.29-15.93C479.1,224.87,485,217.32,487,206.67A110.42,110.42,0,0,0,488.2,182c-.55-12.7-3.87-24.46-12.13-34.45a45.62,45.62,0,0,1-5.36-7.88,141.75,141.75,0,0,0-13.11-20.62c-1.93-2.52-3.61-5.24-5.29-7.94C435.1,83.56,427.71,53.65,431,21.2c.4-4,1.14-7.92,1-11.94-.22-5.4-2.21-7.58-7.55-8.51a50.75,50.75,0,0,0-8.79-.46C309,.07,202.43.71,95.83,0a27.76,27.76,0,0,0-7.75.94,10.06,10.06,0,0,0-7.6,8.11,20.46,20.46,0,0,0-.52,5.1c.83,15.25-.28,30.51.36,45.77a43.24,43.24,0,0,1-6.4,25C59.46,108.3,46,132.27,31.26,155.48a50.65,50.65,0,0,0-7.73,24.21c-.65,9.7.89,19.19,2.41,28.7,1.62,10.19,7.46,16.76,16.92,20.35,8,3,10.61,6.64,10.6,15.26,0,23.66-.16,47.33-.14,71q0,68.31.18,136.61a29.38,29.38,0,0,1-.58,7.06,8.21,8.21,0,0,1-6.5,6.55,25.91,25.91,0,0,1-6.33.5c-3.1,0-6.19,0-9.29.25-6.77.58-9.12,2.89-9.68,9.58-.66,8-.38,16-.29,24a39,39,0,0,0,.35,3.89c.62,5.28,2.82,7.59,8.1,8.11,3.32.33,6.68.46,10,.46q107.75,0,215.48,0H468.05a88,88,0,0,0,12.47-.62c7.19-1,9.71-3.81,10.36-11A159.4,159.4,0,0,0,490.92,477.84ZM471.34,186.71a51.74,51.74,0,0,1-1.73,18.4,12.16,12.16,0,0,1-9.83,9.17,59.51,59.51,0,0,1-24.29,0c-6.37-1.35-10-5.49-11.08-11.86a81.11,81.11,0,0,1-1.24-15.09c.13-5.18,2.06-7.34,7.23-8.15,5.42-.85,10.9-.51,16.36-.59.65,0,1.3,0,1.95,0v0c4.57,0,9.13-.05,13.7,0C468.14,178.61,470.85,181,471.34,186.71ZM221.77,310.83q-.08-20.81-.2-41.61c0-4,.25-8,.41-12,.3-7.47-3.53-11.51-11-11.51q-49.33-.06-98.67,0c-4.66,0-9.31,0-14,0-6.55.07-10.69,4.3-10.58,10.85,1,61,0,121.9.3,182.86,0,5.71-.12,11.41.1,17.13.13,3.16,0,6.5-3.53,7.92-4.08,1.65-8.3,1.81-12.17-.76a5.55,5.55,0,0,1-2.27-4.2,54,54,0,0,1-.39-6.09q0-52,0-104H70v-106c0-4.45.92-5.7,5.14-7.13a68.69,68.69,0,0,0,19.69-10.2c1.19-.89,2.31-1.5,3.76-.52,6.9,4.67,14.74,6.5,22.86,7.2,10.29.88,20.39,0,30-4.09a17.85,17.85,0,0,0,6.4-4c1.58-1.68,3.35-1.14,5.12-.12a62.55,62.55,0,0,0,19.34,7.4c12.64,2.42,24.59.15,35.71-6,4.25-2.34,7.69-2.2,11.87,0,17.27,9.24,34.73,9.07,52,0a11.57,11.57,0,0,1,11.77,0c17.65,9.25,35.37,9.21,52.9-.39a9.87,9.87,0,0,1,10.53,0c17.6,9.69,35.4,9.72,53,.13,3.51-1.91,6.42-2.39,10-.35a44.57,44.57,0,0,0,10.22,4c7.88,2.17,11.74,7.3,11.91,16.42.23,11.66.07,23.33,0,35-.4,40.8-.38,81.6-.19,122.4.07,15.59.23,31.17.35,46.76a35.56,35.56,0,0,1-.52,7.06c-.87,4.38-3.38,7.1-7.8,8.06a38.15,38.15,0,0,1-8.53.57q-94.63-.63-189.27,0a33.27,33.27,0,0,1-7.31-.54c-4-.88-6.2-3.34-7-7.24-.77-3.64-.5-7.32-.47-11Q222,378.89,221.77,310.83ZM210.6,459.67c.09,3.88-.08,4.13-4,5-4.75,1.09-9.59.7-14.39.66-26.2-.19-52.4-.31-78.6.11a38.91,38.91,0,0,1-5.61-.28c-5.19-.7-7.82-3.27-8-8.54-.25-7.75-.1-15.5-.1-23.26q0-81,0-162.07a29,29,0,0,1,.55-7.54,7.61,7.61,0,0,1,6-5.82,20.37,20.37,0,0,1,4.86-.5l88.64.09a18.19,18.19,0,0,1,6,.75c3.34,1.14,4.79,3.24,4.79,6.75v97.67C210.25,395,209.81,427.35,210.6,459.67ZM239.68,179.1c4.95-.69,9.93-.46,14.91-.53h2.69c4.4.29,8.81-.2,13.21-.07,6.07.17,8.93,2.95,9.24,9.05a59.53,59.53,0,0,1-1.65,16.5c-1.41,6.06-5.19,9.68-11.35,10.63a64.67,64.67,0,0,1-21.68-.15c-7.62-1.4-11-5-12.15-12.66a75.44,75.44,0,0,1-.76-14.64C232.37,181.88,234.35,179.84,239.68,179.1Zm-3.12-26.64c1.23-8.73,3.67-17.21,5.49-25.82,2.4-11.41,4.89-22.8,7.36-34.19a23.25,23.25,0,0,1,.78-2.83c1.06-2.94,2.89-4.26,5.86-4.27a5.19,5.19,0,0,1,5.57,4.23c1.47,5.5,2.68,11.08,3.88,16.66,3,13.86,5.83,27.76,9.35,41.51a24.41,24.41,0,0,1,1,6.05c0,5.46-2.38,8.22-7.38,8.21-8.23,0-16.47-.2-24.68-.63C237.5,161,235.68,158.65,236.56,152.46Zm158.93,9a13,13,0,0,1-3.87.42c-7.41-.57-14.83-.23-22.25-.27-7.69,0-12.5-3.43-15.13-10.63-5-13.71-9.32-27.63-14.21-41.37-1.69-4.75-3.43-9.49-5.14-14.25-.36-1-.74-2-1-3-1.13-4.3.12-6.3,4.5-7.17a46.72,46.72,0,0,1,8.5-.75c11.25-.47,19.32,4.48,23.59,14.77,7.35,17.73,16.47,34.54,26,51.15a18.26,18.26,0,0,1,2.35,5.87C399.35,159.15,398.34,160.81,395.49,161.47ZM408,187.66a57.74,57.74,0,0,1-1.56,15.77c-1.47,6.15-5.21,10.07-11.53,11.18a60.15,60.15,0,0,1-22.14,0c-8-1.59-11.75-6.23-12.71-14.88a92.27,92.27,0,0,1-.43-13.19c.17-5.71,1.93-7.6,7.72-7.81,5.46-.19,10.93,0,16.39,0v-.18c4.89,0,9.79-.05,14.68,0C404.86,178.57,407.77,181.31,408,187.66ZM344,191.87v5.38c0,9.59-5.82,16.31-15.32,17.56-6.76.89-13.52.31-20.23-.47a11.45,11.45,0,0,1-10.07-8.16c-2.46-7.41-3.12-15-1-22.6.84-3,2-4.34,5.09-4.31,12.05.14,24.1-1.59,36.13.29,5.37.84,5.38.79,5.38,6.2Zm-6.4-35c.85,2.45.45,3.39-2.13,3.72-3.71.47-7.47.6-11.21.85-2.52.17-5.05.3-7.57.44-7.13.25-14.18-.1-21.07-2.21a3.39,3.39,0,0,1-2.7-3c-4.18-20.19-8.16-40.42-12.89-60.5a16.71,16.71,0,0,1-.57-6.06c.37-2.91,1.68-4.91,4.48-5a175.67,175.67,0,0,1,22.13.12c4.85.44,7.88,4.23,9.51,8.88q8.28,23.64,16.6,47.27C334,146.55,335.77,151.7,337.56,156.85Zm-104.95-65a18.21,18.21,0,0,1-.63,4.35c-4.89,16.7-7.78,33.84-11.47,50.81a46.34,46.34,0,0,1-2.29,7.73,9.8,9.8,0,0,1-7.86,6.24c-5.18.93-10.42.47-15.63.51-3.75,0-7.51.05-11.26,0a22,22,0,0,1-4.12-.52c-3.54-.76-4.76-2.5-4.36-6.14a37.12,37.12,0,0,1,1.75-7.11c4.69-14.77,10.5-29.15,15-44,.93-3,1.71-6.13,2.75-9.14,2.58-7.53,7.45-10.69,15.35-9.86a49.44,49.44,0,0,0,11.47,0,17.61,17.61,0,0,1,5.61.11C230.9,85.62,232.73,87.83,232.61,91.87ZM214.39,204c-1.44,6-5.19,9.69-11.33,10.66a63,63,0,0,1-22.13-.2c-7.53-1.48-11-5.14-12.17-12.71a86.51,86.51,0,0,1-1.08-13.64c0-6,2.1-8.25,8-9.06s11.56-.39,17.79-.58c3.86.14,8.18.08,12.5-.07,6.85-.24,9.95,2.75,10.12,9.59A61.65,61.65,0,0,1,214.39,204ZM178.13,91.75q-4.5,13.45-9.09,26.88-6.15,17.94-12.37,35.84c-1.93,5.52-4.89,7.56-11.07,7.47-7.59-1.54-15.9.44-24.21-.34-7.88-.74-9.47-2.77-6.16-9.9,6.45-13.91,13.85-27.35,20.79-41,2.59-5.09,5.29-10.12,7.88-15.21a13.17,13.17,0,0,1,4.4-5.15,35.4,35.4,0,0,1,23.86-6.27,11.57,11.57,0,0,1,2.38.55C178.32,85.88,179.4,88,178.13,91.75ZM114,178.37c1.87.1,3.75.25,5.62.28,2.94,0,5.88,0,8.81,0v-.21c4.81,0,9.63-.07,14.44,0,6.35.11,9.27,2.94,9.54,9.27a53.28,53.28,0,0,1-1.37,14.57c-1.84,7.9-5.62,11.5-13.6,12.61a63.37,63.37,0,0,1-20.7-.41c-6.38-1.23-10.26-5-11.64-11.37a54.48,54.48,0,0,1-1-16.3C104.6,180.64,107.82,178,114,178.37ZM423.46,92.29c4.33,7.38,8.72,14.72,13.09,22.08,6.58,11.07,13.13,22.15,19.76,33.19,1.17,1.95,2.68,3.69,4,5.57s1.91,3.79.8,6a5.25,5.25,0,0,1-5.52,2.86c-4.07-.33-8.14,0-12.21-.09a38.5,38.5,0,0,0-8.5.6c-6.76,1.39-12.13-1.16-16.45-6.28a37.58,37.58,0,0,1-5.66-9.12c-7.61-17.33-16.73-33.89-25.63-50.57a24.38,24.38,0,0,1-2.69-6.27c-.64-2.89.42-4.5,3.3-5.16s5.69,0,8.53,0c1.72,0,3.43,0,5.14,0V85c2.77,0,5.56.21,8.31,0C416,84.35,420.36,87,423.46,92.29ZM96.38,23.5a8,8,0,0,1,6-6.44,32.15,32.15,0,0,1,9.22-.91q61.1.17,122.18.29,76.62.06,153.26-.06c5.14,0,10.28-.16,15.42-.24.74,0,1.47,0,2.21,0,8.5.25,11.66,3.65,11.11,12.13a198.84,198.84,0,0,0,0,28.36c.06.82.07,1.63.05,2.45-.08,5.93-2.45,8.71-8.31,9.5-5.12.68-10.27.27-15.41.23-45.21-.37-90.42-.15-135.63-.16q-59.5,0-119,0c-9.06,0-18.12.14-27.18.23a33.7,33.7,0,0,1-6.58-.5c-4.88-.93-7.38-3.77-7.68-8.73a72.36,72.36,0,0,1,.37-8.06,146.71,146.71,0,0,0-.21-20.54A24.83,24.83,0,0,1,96.38,23.5ZM50.75,154.7A11.41,11.41,0,0,1,53,150.12c6.25-7.61,10.58-16.43,15.68-24.76q9.06-14.82,18-29.7a13.29,13.29,0,0,1,4.94-5,52.09,52.09,0,0,1,29.62-6.65,11.34,11.34,0,0,1,4,1c2.93,1.4,3.62,3.28,2.16,6.14-10.81,21.11-21.68,42.18-32.4,63.33-2.73,5.38-6.8,7.92-12.82,7.36a134.65,134.65,0,0,0-22.89.4,11.76,11.76,0,0,1-4.13-.31A5.9,5.9,0,0,1,50.75,154.7Zm1.54,59.65a12.64,12.64,0,0,1-10.5-10,66.69,66.69,0,0,1-2-16c0-5.35,2-7.75,7.23-8.81,6.53-1.33,13.16-.84,20.18-1,3.48.31,7.39,0,11.3-.05,6.64-.06,9.63,2.76,9.8,9.39a56,56,0,0,1-2,17.18,12.31,12.31,0,0,1-10,9.29A61.55,61.55,0,0,1,52.29,214.35ZM474.21,489.71c-.11,3.93-1.89,5.77-5.94,5.89q-7.22.21-14.44.21H256q-97.2,0-194.39,0c-5.88,0-11.75-.13-17.63-.25-4.4-.08-6.17-1.84-6.24-6-.08-5,1.67-7.19,6-7.46,3.17-.19,6.36-.27,9.54-.27q202.47,0,404.94,0c3.43,0,6.86.07,10.27.31C472.53,482.39,474.34,484.94,474.21,489.71Z"/><path class="cls-2" d="M250,327.74h.2c0,10.6,0,21.21,0,31.82,0,13.78-.19,27.57-.17,41.36,0,8.58,3.55,12,12.08,12.16h2q15.42-.12,30.84-.22c34.19-.21,68.38,0,102.56.27a31.17,31.17,0,0,0,6.82-.5,9.13,9.13,0,0,0,7.68-7.85,30.07,30.07,0,0,0,.45-5.36c0-4.73-.22-9.46-.22-14.19,0-22.92.06-45.85,0-68.77,0-18-.22-36.06.09-54.09.08-4,.46-8-.31-12s-3.08-6.73-7.18-7.75a25.91,25.91,0,0,0-6.56-.59q-67.2.33-134.4,0C253.33,242,250,245.48,250,256Q250,291.88,250,327.74ZM262.12,261a8,8,0,0,1,6.48-6.52,24.41,24.41,0,0,1,5.59-.46c37.54.22,75.07.28,112.6,0a27.75,27.75,0,0,1,7.55.52,7.6,7.6,0,0,1,5.84,5.93,22.21,22.21,0,0,1,.51,6.08c-.58,20.55-.31,41.11-.12,61.67-.17,20.88-.37,41.77.08,62.65a21.19,21.19,0,0,1-.31,3.89c-.66,3.82-2.6,5.74-6.46,6.24-5.61.73-11.25.21-16.87.18-29-.15-57.94-.2-86.9,0-5.88,0-11.75.17-17.62.14-7.83,0-10.79-3-10.78-10.89,0-18.68.23-37.37.22-56.05,0-21.78-.17-43.56-.25-65.34A35.62,35.62,0,0,1,262.12,261Z"/></svg>