<svg id="Capa_1" data-name="Capa 1" xmlns="http://www.w3.org/2000/svg" xmlns:xlink="http://www.w3.org/1999/xlink" viewBox="0 0 512 512"><defs><style>.cls-1{fill:url(#Degradado_sin_nombre_2);}.cls-2{fill:url(#Degradado_sin_nombre_2-2);}.cls-3{fill:url(#Degradado_sin_nombre_2-3);}</style><linearGradient id="Degradado_sin_nombre_2" x1="256" y1="64.8" x2="256" y2="447.2" gradientUnits="userSpaceOnUse"><stop offset="0" stop-color="#00a8ce"/><stop offset="0.98" stop-color="#2a3260"/><stop offset="1" stop-color="#2a3260"/></linearGradient><linearGradient id="Degradado_sin_nombre_2-2" x1="172.05" y1="129.48" x2="172.05" y2="255.23" xlink:href="#Degradado_sin_nombre_2"/><linearGradient id="Degradado_sin_nombre_2-3" x1="51" y1="131.55" x2="51" y2="255.42" xlink:href="#Degradado_sin_nombre_2"/></defs><path class="cls-1" d="M300.89,395c-2-1-3.93-.89-5.77-1.16a31.49,31.49,0,0,1-7-2,6.1,6.1,0,0,1-4-5.64c-.18-2.65-.42-5.3-.43-8q0-34.26,0-68.54c0-2.62-.14-5.19-2.9-6.63a6.19,6.19,0,0,0-3.31-.64c-6.6.41-13.21.15-19.81.14-3.1,0-6.24-.28-8.43-3.08-3.33-4.23-2.1-10.31,2.92-14,9.94-7.39,19.91-14.74,29.83-22.16Q300.54,249.45,319,235.5a45.6,45.6,0,0,1,5.36-3.76c4.14-2.28,8-1.61,11.46,1.12,10.09,8.06,20.22,16,30.71,23.61,11.7,8.44,23.27,17,34.81,25.7,3,2.23,6.41,4.16,7.51,8.17.18.66.49,1.28.61,2,.87,4.94-1.93,8.47-7.82,9.54a65.71,65.71,0,0,1-16.34.62c-1.81-.13-3.64-.29-5.45-.24-3.39.1-5.3,1.87-5.24,5.23.15,8.95.12,17.91,0,26.86,0,3.34,1.23,4.64,4.57,5.07a36.23,36.23,0,0,0,4.78.09c13.28,0,26.57.1,39.86,0,7.8-.08,15.63-.23,23.22-2.51a67.1,67.1,0,0,0,22.9-11.65,63.53,63.53,0,0,0,15.28-17.41,61.77,61.77,0,0,0,8.74-37.44c-1.7-19.9-10.55-35.88-26.79-47.65a62.69,62.69,0,0,0-43.22-12.08,55.88,55.88,0,0,0-17.33,4.42,41.83,41.83,0,0,1-6.46,2.15,6.48,6.48,0,0,1-7.62-4.21c-1.39-3.47-1.2-6.93-.49-10.5,2.59-13,.82-25.16-8.62-35.16-9.83-10.41-24.47-15.12-39-9.48a60.3,60.3,0,0,0-10,5.25,27.45,27.45,0,0,1-5.1,2.45c-3.92,1.46-7.6-.61-9.74-5.18-2.95-6.3-5.55-12.75-9-18.83a109.46,109.46,0,0,0-19.24-25.32c-9.7-9.39-20.94-16.51-33-22.5a109.78,109.78,0,0,0-52.2-12,108,108,0,0,0-27.75,4.54,135.45,135.45,0,0,0-24.78,10,117.74,117.74,0,0,0-34.41,26.59,100.44,100.44,0,0,0-15.33,22.59c-.26.54-.45,1.29-1.47,1.61,0-4.63-.1-9.15,0-13.66.11-3.81-.92-6.88-4.57-8.61-1.2-.57-.77-1.27-.25-2a153.53,153.53,0,0,1,12.89-16,138.52,138.52,0,0,1,25.58-21.2,134.64,134.64,0,0,1,23.22-11.77,130.28,130.28,0,0,1,33-8.21,133.75,133.75,0,0,1,35.41.6,160,160,0,0,1,20.86,4.51,124.86,124.86,0,0,1,19.88,7.68,126.51,126.51,0,0,1,44.13,35.25A178.87,178.87,0,0,1,328,136.65c.82,1.44,1.67,2.89,2.35,4.4s1.79,2,3.47,1.57c9-2.06,18-3.71,27.22-3.59,8.94.12,17.49,1.83,25.1,6.82a44.86,44.86,0,0,1,14,15.19,93,93,0,0,1,8.78,20.85,79.21,79.21,0,0,1,2.32,8.77c.32,1.85,1.14,2.38,2.81,2.42,7.21.19,14.42.29,21.62.68a80.79,80.79,0,0,1,22.86,4.65A82.46,82.46,0,0,1,507,247c3.57,9.82,5.5,19.91,4.83,30.32a92.15,92.15,0,0,1-6.5,28.69,82.4,82.4,0,0,1-15.24,24.49A78.42,78.42,0,0,1,462.91,350c-11.92,5.19-24.42,6.71-37.27,7-19.51.38-39,0-58.52-.16-3,0-6.17-.22-8.22-3a10.91,10.91,0,0,1-1.87-6.68q-.11-17-.08-33.93c0-6.23-.17-12.46.15-18.67.29-5.64,1.42-8.36,8.33-9.26,1.73-.22,3.44-.59,5.15-1,.7-.15,1.76,0,2-.71s-.8-1.15-1.33-1.66c-6.32-6.12-13.68-11-20.56-16.39-5.39-4.26-10.9-8.38-16.37-12.54a15.37,15.37,0,0,0-3.41-2.2c-2.24-.9-4.17.17-5.84,1.57-11.06,9.3-22.82,17.68-34.4,26.28-1.39,1-2.75,2.12-4.1,3.2-.51.41-1.36.73-1.14,1.51a2.06,2.06,0,0,0,1.89,1.41c2,.23,3.91.51,5.87.79,5.65.81,7.84,3,7.87,8.61.13,18.36.09,36.74.09,55.11,0,7.21-.12,14.42-.12,21.63,0,3.93,1.12,5,5,5,6.08,0,12.15-.05,18.23,0a17.15,17.15,0,0,1,10,3.08,5.21,5.21,0,0,1,2.35,4.83,12.19,12.19,0,0,1-5.16,9.83c-11.24,8.43-22.35,17-33.59,25.46-7.85,5.89-15.82,11.61-23.73,17.41-3.72,2.72-7.54,5.31-11.13,8.19a11,11,0,0,1-13.54.15c-11.19-8.11-22.42-16.16-33.39-24.56-7.55-5.79-15.27-11.36-22.85-17.11-4.81-3.65-9.62-7.33-14.2-11.25a11.28,11.28,0,0,1-3.7-9.63c.16-2.65,2.51-3.74,4.65-4.79,4-1.94,8.24-2,12.47-2,4.48,0,9,.27,13.43.34s5.36-1.07,5.25-5.42c0-1.89,0-3.79,0-5.69,0-5.93-1.82-7.92-7.82-8-4.86-.09-9.72,0-14.58,0q-37.7.09-75.39.19c-10.7,0-21.41,0-32.11-.24a85.39,85.39,0,0,1-43.95-12.91,74.81,74.81,0,0,1-23.1-22.64A85.46,85.46,0,0,1,.35,265.71a53.83,53.83,0,0,1,3-14.21c.44-1.21.92-1.51,1.92-.83a77.94,77.94,0,0,0,12.85,6.68c1.33.58,1.44,1.3,1.13,2.63a65.83,65.83,0,0,0,.2,30.64,62,62,0,0,0,9.89,21.75,61.37,61.37,0,0,0,18.92,17.37c11.73,6.95,24.47,9.66,38,9.64,43.13-.09,86.26,0,129.39.07a23.77,23.77,0,0,1,7.4,1,6.23,6.23,0,0,1,4.47,4.69,31.15,31.15,0,0,1,.91,7.2c.06,10.48.07,20.95-.89,31.4a12.06,12.06,0,0,1-1.11,5.06,6.37,6.37,0,0,1-5,3.53c-2.25.31-4.49.73-6.76,1-1.13.12-2.29.34-2.68,1.37s1,1.32,1.6,1.79q19.59,14.65,39.24,29.22c3.22,2.39,3.29,2.41,6.59,0,8.89-6.53,17.74-13.12,26.61-19.68Z"/><path class="cls-2" d="M202.39,182c8.58,0,17.16.08,25.74,0,2.16,0,2.65.69,2.64,2.73-.08,14.72-.22,29.46.08,44.18a10.31,10.31,0,0,1-4,8.68,68.75,68.75,0,0,1-19.66,12.39,70,70,0,0,1-35.66,4.72,68.76,68.76,0,0,1-27.6-9.78,66,66,0,0,1-21-20.59,61.24,61.24,0,0,1-8.14-19.33,54.15,54.15,0,0,1,.22-26.11,62.68,62.68,0,0,1,22.21-34.21,70,70,0,0,1,91.73,4.49c1.61,1.53,1.13,2.4-.16,3.52-7.11,6.22-14.25,12.41-21.31,18.69-1.62,1.44-2.44,1.33-4.07-.29-8.81-8.79-19.08-12.75-31.59-9a31.38,31.38,0,0,0-21,19.17c-3.78,9.42-2.62,18.64,2.64,27.44a31.42,31.42,0,0,0,35.27,14.29,54,54,0,0,0,5.92-2.3c2-.79,2.78-2.19,2.56-4.41a47.17,47.17,0,0,1,0-6.83c.08-1.6-.52-2.09-2.1-2.08-6.3.07-12.6,0-18.9.07-2,0-2.6-.63-2.58-2.6.1-6.83.08-13.66,0-20.49,0-1.77.55-2.37,2.35-2.35C184.77,182,193.58,182,202.39,182Z"/><path class="cls-3" d="M51.72,131.6c13.44,0,26.88.05,40.31,0,2.25,0,3,.55,3,2.91-.14,8.43-.12,16.85,0,25.28,0,2.06-.53,2.71-2.65,2.7-16.63-.08-33.26,0-49.88-.09-2,0-2.79.55-2.82,2.6,0,4.1-.3,8.19-.44,12.28,0,.57-.28,1.38.4,1.62.35.13,1-.31,1.39-.58,7.37-4.63,15.49-5.77,24-5.24A40.69,40.69,0,0,1,83.9,178.8a34.23,34.23,0,0,1,15.18,18.51,45.16,45.16,0,0,1-.48,31,36,36,0,0,1-15.36,18.55c-14,8.58-29.35,9.71-45.22,7.79a68.94,68.94,0,0,1-21.32-6.07A61.8,61.8,0,0,1,1.12,238.16c-1-.95-.82-1.36,0-2.32q8.61-10.5,17.05-21.14c1-1.25,1.76-1.36,2.91-.4a54.07,54.07,0,0,0,12.46,7.76c7.76,3.52,15.8,5,24.12,2.66,7.52-2.1,12.09-9.37,8.57-16.7a10.37,10.37,0,0,0-5.67-5.25c-8.45-3.32-16.77-2.45-24.94,1.15A11.34,11.34,0,0,0,31.85,206c-2.91,3-5.71.7-8.43-.23-4.72-1.6-9.34-3.5-14-5.21-1.88-.68-2.85-1.52-2.78-3.9.47-14.33.66-28.67,1-43,.16-6.52.57-13,.68-19.55,0-2,.7-2.55,2.64-2.54C24.54,131.63,38.13,131.6,51.72,131.6Z"/></svg>